<?xml version="1.0" encoding="iso-8859-1"?>
<!-- Uploaded to: SVG Repo, www.svgrepo.com, Generator: SVG Repo Mixer Tools -->
<svg fill="#000000" height="800px" width="800px" version="1.1" id="Layer_1" xmlns="http://www.w3.org/2000/svg" xmlns:xlink="http://www.w3.org/1999/xlink" 
	 viewBox="0 0 512.083 512.083" xml:space="preserve">
<g>
	<g>
		<path d="M469.385,369.493v-28.16c0-61.44-49.493-110.933-110.933-110.933h-59.733v-76.8h34.987
			c9.387,0,17.067-5.973,22.187-14.507c5.12-8.533,4.267-18.773-1.707-26.453l-71.68-98.987C276.531,5.12,267.145,0,256.051,0
			c-11.093,0-20.48,5.12-27.307,14.507l-71.68,98.987c-5.12,7.68-5.973,17.92-1.707,26.453s13.653,13.653,23.04,13.653h43.52v76.8
			h-68.267c-61.44,0-110.933,49.493-110.933,110.933v29.013C17.118,382.293,0.905,407.04,0.051,435.2
			c-0.853,37.547,25.6,69.12,64,75.947c22.187,3.413,45.227-2.56,62.293-17.067c17.067-15.36,27.307-36.693,27.307-58.88
			c0-29.013-16.213-52.907-42.667-65.707v-28.16c0-23.893,18.773-42.667,42.667-42.667h68.267v71.68
			c-25.6,11.947-41.813,36.693-42.667,64.853c-0.853,37.547,25.6,69.12,64,75.947c22.187,3.413,45.227-2.56,62.293-17.067
			c17.067-15.36,27.307-36.693,27.307-58.88c0-29.013-16.213-52.907-42.667-65.707v-70.827h68.267
			c23.893,0,42.667,18.773,42.667,42.667v29.013c-25.6,11.947-41.813,36.693-42.667,64.853c-0.853,37.547,25.6,69.12,64,75.947
			c4.267,0.853,8.533,0.853,12.8,0.853c17.92,0,35.84-5.973,49.493-17.92c17.067-15.36,27.307-36.693,27.307-58.88
			C512.051,406.187,495.838,382.293,469.385,369.493z M473.651,480.427c-13.653,11.947-30.72,16.213-48.64,13.653
			c-29.867-5.12-50.347-29.867-49.493-58.88c0.853-23.04,15.36-42.667,37.547-52.053c3.413-0.853,5.12-4.267,5.12-7.68v-34.133
			c0-33.28-26.453-59.733-59.733-59.733h-76.8c-5.12,0-8.533,3.413-8.533,8.533v85.333c0,3.413,1.707,6.827,5.12,7.68
			c23.893,10.24,37.547,29.013,37.547,52.053c0,17.92-7.68,34.133-21.333,45.227c-13.653,11.947-30.72,16.213-48.64,13.653
			c-29.867-5.12-50.347-29.867-49.493-58.88c0.853-23.04,15.36-42.667,37.547-52.053c3.413-0.853,5.12-4.267,5.12-7.68v-85.333
			c0-5.12-3.413-8.533-8.533-8.533h-76.8c-33.28,0-59.733,26.453-59.733,59.733v34.133c0,3.413,1.707,6.827,5.12,7.68
			c23.893,10.24,37.547,29.013,37.547,52.053c0,17.92-7.68,34.133-21.333,45.227c-13.653,11.947-30.72,16.213-48.64,13.653
			c-29.867-5.12-50.347-29.867-49.493-58.88c0.853-23.04,15.36-42.667,37.547-52.907c3.413-0.853,5.12-4.267,5.12-7.68V340.48
			c0-52.053,41.813-93.867,93.867-93.867h76.8c5.12,0,8.533-3.413,8.533-8.533v-93.867c0-5.12-3.413-8.533-8.533-8.533h-52.053
			c-3.413,0-5.973-1.707-7.68-4.267s-0.853-5.973,0.853-8.533l71.68-98.987c5.973-8.533,19.627-8.533,25.6,0l71.68,99.84
			c1.707,2.56,2.56,5.973,0.853,8.533c-1.707,2.56-4.267,4.267-7.68,4.267h-43.52c-5.12,0-8.533,3.413-8.533,8.533v93.867
			c0,5.12,3.413,8.533,8.533,8.533h68.267c52.053,0,93.867,41.813,93.867,93.867v34.133c0,3.413,1.707,6.827,5.12,7.68
			c23.893,10.24,37.547,29.013,37.547,52.053C494.985,453.12,487.305,469.333,473.651,480.427z"/>
	</g>
</g>
</svg>