<?xml version="1.0" encoding="UTF-8" standalone="no"?>
<svg
   version="1.1"
   width="60px"
   height="60px"
   viewBox="-0.5 -0.5 60 60"
   id="svg16"
   sodipodi:docname="bar_plot.svg"
   inkscape:version="1.1.2 (0a00cf5339, 2022-02-04)"
   xmlns:inkscape="http://www.inkscape.org/namespaces/inkscape"
   xmlns:sodipodi="http://sodipodi.sourceforge.net/DTD/sodipodi-0.dtd"
   xmlns="http://www.w3.org/2000/svg"
   xmlns:svg="http://www.w3.org/2000/svg">
  <sodipodi:namedview
     id="namedview18"
     pagecolor="#505050"
     bordercolor="#eeeeee"
     borderopacity="1"
     inkscape:pageshadow="0"
     inkscape:pageopacity="0"
     inkscape:pagecheckerboard="0"
     showgrid="false"
     inkscape:zoom="13.95"
     inkscape:cx="29.964158"
     inkscape:cy="29.964158"
     inkscape:window-width="1920"
     inkscape:window-height="1056"
     inkscape:window-x="1920"
     inkscape:window-y="0"
     inkscape:window-maximized="1"
     inkscape:current-layer="svg16" />
  <defs
     id="defs2" />
  <g
     id="g14">
    <rect
       x="0"
       y="23.08"
       width="13.08"
       height="30.77"
       rx="1.96"
       ry="1.96"
       fill="#009cde"
       stroke="none"
       pointer-events="all"
       id="rect4" />
    <rect
       x="30.77"
       y="30.77"
       width="13.08"
       height="23.08"
       rx="1.96"
       ry="1.96"
       fill="#009cde"
       stroke="none"
       pointer-events="all"
       id="rect6" />
    <rect
       x="15.38"
       y="15.38"
       width="13.08"
       height="38.46"
       rx="1.96"
       ry="1.96"
       fill="#009cde"
       stroke="none"
       pointer-events="all"
       id="rect8" />
    <rect
       x="46.15"
       y="0"
       width="13.08"
       height="53.85"
       rx="1.96"
       ry="1.96"
       fill="#009cde"
       stroke="none"
       pointer-events="all"
       id="rect10" />
    <rect
       x="0"
       y="56.15"
       width="59.23"
       height="3.85"
       rx="1.92"
       ry="1.92"
       fill="#009cde"
       stroke="none"
       pointer-events="all"
       id="rect12" />
  </g>
  <path
     style="opacity:1;mix-blend-mode:normal;fill:#ffffff;fill-opacity:1;stroke:#31b7bc;stroke-width:0.0716846"
     d="m 48.121314,54.237612 c -0.627649,-0.171191 -1.121562,-0.635711 -1.33492,-1.255477 -0.06345,-0.184297 -0.08371,-6.420159 -0.08319,-25.591398 l 7.01e-4,-25.3477262 0.167262,-0.358423 c 0.09199,-0.1971326 0.304919,-0.4825251 0.473166,-0.6342057 0.603708,-0.54426352 0.244409,-0.51274769 5.845626,-0.51274769 5.623206,0 5.249692,-0.033992 5.865688,0.53381309 0.175334,0.1616175 0.387094,0.4526277 0.470577,0.6466893 l 0.151787,0.3528393 -0.01822,25.4340459 c -0.0179,24.993853 -0.02062,25.438889 -0.157053,25.71386 -0.188475,0.379863 -0.569392,0.746645 -0.965869,0.930027 -0.324101,0.149905 -0.401407,0.152378 -5.203541,0.166457 -3.782134,0.01109 -4.95018,-0.0063 -5.212019,-0.07775 z"
     id="path2060"
     transform="translate(-0.5,-0.5)" />
  <path
     style="opacity:1;fill:#ffffff;fill-opacity:1;stroke:#31b7bc;stroke-width:0.0716846"
     d="m 32.831541,54.27141 c -0.675851,-0.167212 -1.253705,-0.702602 -1.436318,-1.330768 -0.0935,-0.321628 -0.104897,-1.651506 -0.08822,-10.292988 l 0.01916,-9.92364 0.212643,-0.38391 c 0.116954,-0.211151 0.324825,-0.47638 0.461936,-0.589398 0.524852,-0.432628 0.419355,-0.425062 5.843567,-0.419088 3.600498,0.004 5.013661,0.02841 5.179636,0.08961 0.468147,0.1726 0.857268,0.519393 1.070845,0.954361 l 0.206283,0.420114 v 10.035842 10.035843 l -0.190448,0.358422 c -0.225402,0.424206 -0.480462,0.67523 -0.920663,0.906092 l -0.32258,0.169177 -4.910395,0.01177 c -2.700717,0.0065 -5.007168,-0.01217 -5.125448,-0.04144 z"
     id="path2769"
     transform="translate(-0.5,-0.5)" />
  <path
     style="opacity:1;fill:#ffffff;fill-opacity:1;stroke:#31b7bc;stroke-width:0.0716846"
     d="m 17.465718,54.261282 c -0.622998,-0.125342 -1.159642,-0.572496 -1.41204,-1.17657 -0.08974,-0.214786 -0.103762,-2.65758 -0.103157,-17.974883 l 7e-4,-17.726316 0.168758,-0.36241 c 0.09282,-0.199325 0.306717,-0.480498 0.475336,-0.624829 0.586783,-0.502265 0.409384,-0.488376 5.955795,-0.466278 l 4.975772,0.01983 0.394265,0.221085 c 0.428457,0.240258 0.803395,0.709775 0.929569,1.164054 0.04891,0.176088 0.07335,6.084296 0.07362,17.795639 4.3e-4,19.547905 0.04568,17.886796 -0.504075,18.511349 -0.160442,0.182272 -0.439454,0.389229 -0.657698,0.487848 l -0.379045,0.171279 -4.802868,0.0115 c -2.641577,0.0063 -4.943294,-0.01676 -5.114927,-0.05129 z"
     id="path2808"
     transform="translate(-0.5,-0.5)" />
  <path
     style="opacity:1;fill:#ffffff;fill-opacity:1;stroke:#31b7bc;stroke-width:0.0716846"
     d="M 1.9574053,54.236649 C 1.7723295,54.186824 1.562652,54.101975 1.4914555,54.048095 1.1520677,53.791253 0.8695758,53.486799 0.72848538,53.225806 L 0.5734767,52.939068 V 38.960573 24.982079 L 0.72957586,24.690451 C 0.916295,24.341617 1.3639723,23.922333 1.7367544,23.747149 c 0.2508023,-0.117861 0.6343389,-0.127077 5.2883352,-0.127077 4.9407584,0 5.0228814,0.0023 5.3405014,0.149952 0.46895,0.217993 0.752765,0.485012 0.962169,0.905231 l 0.184785,0.370816 v 13.920391 13.920392 l -0.200197,0.38322 c -0.114321,0.218835 -0.330924,0.482929 -0.504955,0.615667 -0.597506,0.455733 -0.545091,0.451683 -5.7773931,0.446339 -3.5781128,-0.0037 -4.8183681,-0.02699 -5.0725946,-0.09543 z"
     id="path2847"
     transform="translate(-0.5,-0.5)" />
  <path
     style="opacity:1;fill:#ffffff;fill-opacity:1;stroke:#31b7bc;stroke-width:0.0716846"
     d="M 2.1077389,60.429505 C 1.5181004,60.329197 1.0323906,59.964126 0.73067762,59.394474 0.51346771,58.984368 0.51375026,58.147732 0.73123737,57.737046 0.93345693,57.35519 1.3692272,56.967381 1.7631832,56.818676 c 0.2926511,-0.110465 2.3673675,-0.117738 28.4518708,-0.09974 27.022303,0.01865 28.146558,0.02457 28.397825,0.149617 0.337958,0.168192 0.734705,0.566948 0.893966,0.898495 0.179915,0.374542 0.210929,0.99919 0.07059,1.421713 -0.161206,0.485347 -0.475933,0.83837 -0.958826,1.075499 l -0.410724,0.201689 -27.885304,0.0098 c -15.336918,0.0054 -28.0335967,-0.01542 -28.2148421,-0.04625 z"
     id="path2886"
     transform="translate(-0.5,-0.5)" />
</svg>
