<?xml version="1.0" encoding="iso-8859-1"?>
<!-- Generator: Adobe Illustrator 19.0.0, SVG Export Plug-In . SVG Version: 6.00 Build 0)  -->
<svg version="1.1" id="Capa_1" xmlns="http://www.w3.org/2000/svg" xmlns:xlink="http://www.w3.org/1999/xlink" x="0px" y="0px"
	 viewBox="0 0 512 512" style="enable-background:new 0 0 512 512;" xml:space="preserve">
<g>
	<g>
		<path d="M256,0C136.384,0,42.667,42.176,42.667,96S136.384,192,256,192s213.333-42.176,213.333-96S375.616,0,256,0z M256,170.667
			c-113.152,0-192-39.36-192-74.667s78.848-74.667,192-74.667S448,60.693,448,96S369.152,170.667,256,170.667z"/>
	</g>
</g>
<g>
	<g>
		<path d="M458.667,192c-5.888,0-10.667,4.779-10.667,10.667c0,35.307-78.848,74.667-192,74.667s-192-39.36-192-74.667
			C64,196.779,59.221,192,53.333,192s-10.667,4.779-10.667,10.667c0,53.824,93.717,96,213.333,96s213.333-42.176,213.333-96
			C469.333,196.779,464.555,192,458.667,192z"/>
	</g>
</g>
<g>
	<g>
		<path d="M458.667,298.667c-5.888,0-10.667,4.779-10.667,10.667C448,344.64,369.152,384,256,384S64,344.64,64,309.333
			c0-5.888-4.779-10.667-10.667-10.667s-10.667,4.779-10.667,10.667c0,53.824,93.717,96,213.333,96s213.333-42.176,213.333-96
			C469.333,303.445,464.555,298.667,458.667,298.667z"/>
	</g>
</g>
<g>
	<g>
		<path d="M458.667,85.333C452.779,85.333,448,90.112,448,96v320c0,35.307-78.848,74.667-192,74.667S64,451.307,64,416V96
			c0-5.888-4.779-10.667-10.667-10.667S42.667,90.112,42.667,96v320c0,53.824,93.717,96,213.333,96s213.333-42.176,213.333-96V96
			C469.333,90.112,464.555,85.333,458.667,85.333z"/>
	</g>
</g>
<g>
</g>
<g>
</g>
<g>
</g>
<g>
</g>
<g>
</g>
<g>
</g>
<g>
</g>
<g>
</g>
<g>
</g>
<g>
</g>
<g>
</g>
<g>
</g>
<g>
</g>
<g>
</g>
<g>
</g>
</svg>
