<?xml version="1.0" encoding="iso-8859-1"?>
<!-- Generator: Adobe Illustrator 19.0.0, SVG Export Plug-In . SVG Version: 6.00 Build 0)  -->
<svg version="1.1" id="Capa_1" xmlns="http://www.w3.org/2000/svg" xmlns:xlink="http://www.w3.org/1999/xlink" x="0px" y="0px"
	 viewBox="0 0 512 512" style="enable-background:new 0 0 512 512;" xml:space="preserve">
<g>
	<g>
		<path d="M378.24,243.712l-96-80c-4.768-3.968-11.424-4.832-17.024-2.208C259.584,164.128,256,169.792,256,176v48H16
			c-8.832,0-16,7.168-16,16v32c0,8.832,7.168,16,16,16h240v48c0,6.208,3.584,11.84,9.216,14.496c2.144,0.992,4.48,1.504,6.784,1.504
			c3.68,0,7.328-1.248,10.24-3.712l96-80c3.68-3.04,5.76-7.552,5.76-12.288C384,251.264,381.92,246.752,378.24,243.712z"/>
	</g>
</g>
<g>
	<g>
		<path d="M480,0H32C14.336,0,0,14.336,0,32v160h64V64h384v384H64V320H0v160c0,17.696,14.336,32,32,32h448c17.696,0,32-14.304,32-32
			V32C512,14.336,497.696,0,480,0z"/>
	</g>
</g>
<g>
</g>
<g>
</g>
<g>
</g>
<g>
</g>
<g>
</g>
<g>
</g>
<g>
</g>
<g>
</g>
<g>
</g>
<g>
</g>
<g>
</g>
<g>
</g>
<g>
</g>
<g>
</g>
<g>
</g>
</svg>
