<?xml version="1.0"?>
<svg xmlns="http://www.w3.org/2000/svg" viewBox="0 0 64 64" width="512" height="512"><g id="gear-graph-service-tool-process"><path d="M59,26H55.99a1,1,0,0,1-.95-.7,23.088,23.088,0,0,0-2.01-4.85,1,1,0,0,1,.18-1.17l2.12-2.13a3,3,0,0,0,0-4.24L51.09,8.67a3,3,0,0,0-4.24,0l-2.13,2.12a1,1,0,0,1-1.17.18A23.665,23.665,0,0,0,38.7,8.95a.978.978,0,0,1-.7-.94V5a3.009,3.009,0,0,0-3-3H29a3.009,3.009,0,0,0-3,3V8.01a1,1,0,0,1-.7.95,23.088,23.088,0,0,0-4.85,2.01,1,1,0,0,1-1.17-.18L17.15,8.67a3,3,0,0,0-4.24,0L8.67,12.91a3,3,0,0,0,0,4.24l2.12,2.13a1,1,0,0,1,.18,1.17A23.665,23.665,0,0,0,8.95,25.3a.978.978,0,0,1-.94.7H5a3.009,3.009,0,0,0-3,3v6a3.009,3.009,0,0,0,3,3H8.01a1,1,0,0,1,.95.7,23.088,23.088,0,0,0,2.01,4.85,1,1,0,0,1-.18,1.17L8.67,46.85a2.994,2.994,0,0,0,0,4.24l4.24,4.24a3,3,0,0,0,4.24,0l2.13-2.12a1,1,0,0,1,1.17-.18,23.665,23.665,0,0,0,4.85,2.02.978.978,0,0,1,.7.94V59a3.009,3.009,0,0,0,3,3h6a3.009,3.009,0,0,0,3-3V55.99a1,1,0,0,1,.7-.95,23.088,23.088,0,0,0,4.85-2.01,1,1,0,0,1,1.17.18l2.13,2.12a3,3,0,0,0,4.24,0l4.24-4.24a2.994,2.994,0,0,0,0-4.24l-2.12-2.13a1,1,0,0,1-.18-1.17,23.665,23.665,0,0,0,2.02-4.85.978.978,0,0,1,.94-.7H59a3.009,3.009,0,0,0,3-3V29A3.009,3.009,0,0,0,59,26Zm1,9a1,1,0,0,1-1,1H55.99a3,3,0,0,0-2.87,2.14,21.31,21.31,0,0,1-1.84,4.45,3.019,3.019,0,0,0,.51,3.55l2.13,2.12a1.014,1.014,0,0,1,0,1.42l-4.24,4.24a1.027,1.027,0,0,1-1.42,0l-2.12-2.13a3.019,3.019,0,0,0-3.55-.51,21.31,21.31,0,0,1-4.45,1.84A3,3,0,0,0,36,55.99V59a1,1,0,0,1-1,1H29a1,1,0,0,1-1-1V55.99a3,3,0,0,0-2.14-2.87,21.31,21.31,0,0,1-4.45-1.84,2.966,2.966,0,0,0-1.42-.36,3.038,3.038,0,0,0-2.13.87l-2.12,2.13a1.027,1.027,0,0,1-1.42,0l-4.24-4.24a1.014,1.014,0,0,1,0-1.42l2.13-2.12a3.019,3.019,0,0,0,.51-3.55,21.31,21.31,0,0,1-1.84-4.45A3,3,0,0,0,8.01,36H5a1,1,0,0,1-1-1V29a1,1,0,0,1,1-1H8.01a3,3,0,0,0,2.87-2.14,21.31,21.31,0,0,1,1.84-4.45,3.019,3.019,0,0,0-.51-3.55l-2.13-2.12a1.014,1.014,0,0,1,0-1.42l4.24-4.24a1.027,1.027,0,0,1,1.42,0l2.12,2.13a3.019,3.019,0,0,0,3.55.51,21.31,21.31,0,0,1,4.45-1.84A3,3,0,0,0,28,8.01V5a1,1,0,0,1,1-1h6a1,1,0,0,1,1,1V8.01a3,3,0,0,0,2.14,2.87,21.31,21.31,0,0,1,4.45,1.84,3.019,3.019,0,0,0,3.55-.51l2.12-2.13a1.027,1.027,0,0,1,1.42,0l4.24,4.24a1.014,1.014,0,0,1,0,1.42l-2.13,2.12a3.019,3.019,0,0,0-.51,3.55,21.31,21.31,0,0,1,1.84,4.45A3,3,0,0,0,55.99,28H59a1,1,0,0,1,1,1Z"/><path d="M32,14A18,18,0,1,0,50,32,18.027,18.027,0,0,0,32,14Zm0,34A16,16,0,1,1,48,32,16.021,16.021,0,0,1,32,48Z"/><path d="M43,38V23a1,1,0,0,0-1-1H38a1,1,0,0,0-1,1V38H35V27a1,1,0,0,0-1-1H30a1,1,0,0,0-1,1V38H27V33a1,1,0,0,0-1-1H22a1,1,0,0,0-1,1v5H19v2H45V38ZM25,38H23V34h2Zm8,0H31V28h2Zm8,0H39V24h2Z"/></g></svg>
