<?xml version="1.0" encoding="iso-8859-1"?>
<!-- Generator: Adobe Illustrator 19.0.0, SVG Export Plug-In . SVG Version: 6.00 Build 0)  -->
<svg version="1.1" id="Capa_1" xmlns="http://www.w3.org/2000/svg" xmlns:xlink="http://www.w3.org/1999/xlink" x="0px" y="0px"
	 viewBox="0 0 512.021 512.021" style="enable-background:new 0 0 512.021 512.021;" xml:space="preserve">
<g>
	<g>
		<g>
			<path d="M492.608,182.678l-59.051-8.704c-5.077-11.563-11.52-22.912-19.52-34.432l22.464-57.515
				c4.16-10.88-0.128-22.869-9.92-28.352l-84.8-50.389c-9.835-5.973-22.613-3.563-29.739,5.675l-36.8,48.363
				c-14.251-1.493-24.235-1.493-38.485,0L199.936,8.897c-6.955-9.024-19.307-11.477-29.611-5.675L85.675,53.526
				c-9.643,5.397-14.037,17.536-10.133,28.565l22.421,57.365c-7.744,10.987-14.272,22.549-19.499,34.496l-58.859,8.683
				C8.427,184.086,0,193.964,0,205.59v100.885c0,11.648,8.427,21.525,19.413,22.912l59.051,8.704
				c5.077,11.563,11.52,22.912,19.52,34.432L75.52,430.038c-4.16,10.901,0.128,22.891,9.92,28.352l85.12,50.603
				c3.627,2.027,7.552,3.008,11.413,3.008c6.869,0,13.547-3.093,18.027-8.917l36.779-48.363c11.349,1.237,27.179,1.237,38.507,0
				l36.821,48.427c6.933,9.003,19.285,11.477,29.611,5.696l24.533-14.592c5.056-3.008,6.72-9.557,3.712-14.613
				c-3.008-5.056-9.557-6.741-14.613-3.712l-26.304,14.272l-40.469-53.227c-2.304-3.029-6.016-4.565-9.856-4.117
				c-12.928,1.664-32.427,1.664-45.355,0c-3.819-0.427-7.552,1.088-9.856,4.117l-42.24,53.547l-85.12-50.603
				c-0.811-0.469-0.939-1.493-0.661-2.197l24.533-62.805c1.323-3.413,0.832-7.232-1.323-10.176
				c-9.92-13.632-17.365-26.816-22.741-40.299c-1.408-3.541-4.608-6.059-8.363-6.613l-65.003-9.579
				c-0.064,0-1.131-1.792-1.195-1.792V205.569l1.195-1.813l65.003-9.579c3.776-0.555,6.955-3.072,8.363-6.613
				c5.589-14.037,13.205-27.563,22.677-40.192c2.197-2.944,2.731-6.827,1.387-10.261L95.595,74.646
				c-0.299-0.896-0.021-2.197,0.811-2.667l86.656-50.133l40.469,53.227c2.304,3.008,6.016,4.544,9.856,4.117
				c17.749-2.283,27.605-2.283,45.355,0c3.861,0.448,7.552-1.088,9.856-4.117l42.24-53.525l85.099,50.581
				c0.811,0.469,0.96,1.493,0.683,2.197l-24.533,62.805c-1.323,3.413-0.832,7.232,1.323,10.176
				c9.92,13.632,17.365,26.816,22.741,40.299c1.408,3.541,4.608,6.059,8.363,6.613l65.003,9.579
				c0.064,0.021,1.131,1.813,1.195,1.813v100.885l-1.195,1.792l-41.685,6.144c-5.845,0.853-9.877,6.272-9.003,12.096
				c0.853,5.824,6.229,9.92,12.096,9.003l41.472-6.123c11.179-1.429,19.627-11.285,19.627-22.933V205.59
				C512,193.964,503.595,184.086,492.608,182.678z"/>
			<path d="M380.331,301.228c-11.904-11.904-18.389-27.008-17.749-41.451c1.131-26.325-9.877-51.456-33.664-76.821
				c-20.352-21.696-47.68-34.005-74.261-33.621c-23.701,0.299-46.293,8.576-65.344,23.957c-2.709,2.197-4.181,5.568-3.947,9.045
				c0.256,3.477,2.176,6.613,5.163,8.384l65.195,39.104c-1.941,19.605-13.525,36.8-31.253,45.973l-58.368-35.029
				c-3.221-1.941-7.701-1.792-11.029,0.021c-3.243,1.771-5.333,5.077-5.547,8.747c-1.749,29.739,8.512,58.005,28.864,79.595
				c20.096,21.291,48.384,33.493,77.632,33.493c7.851,0,15.723-1.024,24.363-3.221l136.171,136.171
				c10.56,10.581,24.597,16.384,39.552,16.384c30.827,0,55.893-25.088,55.893-55.915c0-14.933-5.824-28.971-16.384-39.531
				L380.331,301.228z M456.107,490.646h-0.043c-9.237,0-17.92-3.605-24.448-10.133L291.051,339.948
				c-2.048-2.027-4.757-3.115-7.552-3.115c-1.045,0-2.069,0.128-3.029,0.427c-9.131,2.752-16.875,4.032-24.427,4.032
				c-23.765,0-45.803-9.515-62.101-26.795c-12.075-12.8-19.691-28.544-22.272-45.504l46.869,28.117
				c3.136,1.877,6.976,2.005,10.261,0.405l4.501-2.24c27.157-13.589,44.053-40.917,44.053-71.296c0-3.755-1.984-7.232-5.184-9.152
				l-56.32-33.792c12.096-6.656,25.365-10.219,39.083-10.389c20.587-0.299,42.176,9.536,58.432,26.88
				c19.925,21.269,28.8,40.747,27.904,61.312c-0.896,20.395,7.851,41.344,23.979,57.472l115.285,115.307
				c6.549,6.528,10.133,15.211,10.133,24.469C490.688,475.137,475.2,490.646,456.107,490.646z"/>
		</g>
	</g>
</g>
<g>
</g>
<g>
</g>
<g>
</g>
<g>
</g>
<g>
</g>
<g>
</g>
<g>
</g>
<g>
</g>
<g>
</g>
<g>
</g>
<g>
</g>
<g>
</g>
<g>
</g>
<g>
</g>
<g>
</g>
</svg>
