<?xml version="1.0" encoding="iso-8859-1"?>
<!-- Generator: Adobe Illustrator 19.0.0, SVG Export Plug-In . SVG Version: 6.00 Build 0)  -->
<svg version="1.1" id="Capa_1" xmlns="http://www.w3.org/2000/svg" xmlns:xlink="http://www.w3.org/1999/xlink" x="0px" y="0px"
	 viewBox="0 0 390 390" style="enable-background:new 0 0 390 390;" xml:space="preserve">
<g>
	<g>
		<path d="M362.072,63c0.1-0.3-0.1-0.6-0.1-0.9V10c0.2-5.3-4-9.8-9.4-10c-0.1,0-0.2,0-0.3,0h-314.7c-5.3,0-9.7,4.4-9.6,9.7
			c0,0.1,0,0.2,0,0.3v52.1c0,0.3-0.2,0.6-0.1,0.9c0,0.1-0.1,0.3,0,0.4c0,0.2,0,0.4,0,0.5c0,0.2,0,0.3,0.1,0.5
			c0.1,0.2,0.1,0.3,0.1,0.4c0,0.1,0.1,0.3,0.1,0.5c0,0.1,0.1,0.3,0.1,0.4c0.1,0.2,0.1,0.3,0.2,0.5c0.1,0.1,0.1,0.3,0.2,0.4
			c0.1,0.1,0.1,0.3,0.2,0.4c0.1,0.1,0.2,0.3,0.2,0.4c0,0.1,0.2,0.3,0.2,0.4c0.1,0.1,0.2,0.3,0.3,0.4s0.2,0.2,0.2,0.3
			c0,0,0.2,0,0.3,0.1l119.9,141V380c-0.1,3.8,2,7.3,5.5,9c1.3,0.6,2.7,1,4.2,1c2.3,0,4.5-0.8,6.2-2.2l70.6-57.3
			c2.3-1.9,3.6-4.8,3.5-7.8V209.6l119.8-141c0,0,0.1,0,0.2-0.1c0.1-0.1,0.2-0.2,0.3-0.3c0.1-0.1,0.2-0.3,0.3-0.4s0.2-0.3,0.3-0.4
			c0.1-0.1,0.2-0.3,0.2-0.4c0.1-0.1,0.2-0.3,0.2-0.4c0.1-0.1,0.1-0.3,0.2-0.4c0.1-0.2,0.1-0.3,0.2-0.5c0.1-0.1,0.1-0.3,0.1-0.4
			c0.1-0.2,0.1-0.3,0.1-0.5s0.1-0.3,0.1-0.4c0-0.1,0.1-0.3,0.1-0.5c0-0.2,0.1-0.4,0.1-0.5C362.172,63.3,361.972,63.1,362.072,63z
			 M222.572,199.4c-1.6,1.8-2.5,4.1-2.6,6.5v112l-50,41.1V205.9c-0.1-2.4-1-4.7-2.6-6.5L59.172,72h271.6L222.572,199.4z M341.972,52
			h-294V20h294V52z"/>
	</g>
</g>
<g>
</g>
<g>
</g>
<g>
</g>
<g>
</g>
<g>
</g>
<g>
</g>
<g>
</g>
<g>
</g>
<g>
</g>
<g>
</g>
<g>
</g>
<g>
</g>
<g>
</g>
<g>
</g>
<g>
</g>
</svg>
