<?xml version="1.0" encoding="iso-8859-1"?>
<!-- Generator: Adobe Illustrator 19.0.0, SVG Export Plug-In . SVG Version: 6.00 Build 0)  -->
<svg version="1.1" id="Capa_1" xmlns="http://www.w3.org/2000/svg" xmlns:xlink="http://www.w3.org/1999/xlink" x="0px" y="0px"
	 viewBox="0 0 512 512" style="enable-background:new 0 0 512 512;" xml:space="preserve">
<g>
	<g>
		<g>
			<path d="M20,106h233c11.046,0,20-8.954,20-20s-8.954-20-20-20H20C8.954,66,0,74.954,0,86S8.954,106,20,106z"/>
			<path d="M373,171c33.084,0,60-26.916,60-60v-5h59c11.046,0,20-8.954,20-20s-8.954-20-20-20h-59v-6c0-33.084-26.916-60-60-60
				s-60,26.916-60,60v51C313,144.084,339.916,171,373,171z M353,60c0-11.028,8.972-20,20-20s20,8.972,20,20v51
				c0,11.028-8.972,20-20,20s-20-8.972-20-20V60z"/>
			<path d="M252.954,407H20c-11.046,0-20,8.954-20,20c0,11.046,8.954,20,20,20h232.954c11.046,0,20-8.954,20-20
				C272.954,415.954,264,407,252.954,407z"/>
			<path d="M20,275.878h57c11.046,0,20-8.954,20-20s-8.954-20-20-20H20c-11.046,0-20,8.954-20,20S8.954,275.878,20,275.878z"/>
			<path d="M492,235.878H257V229c0-33.084-26.916-60-60-60s-60,26.916-60,60v52c0,33.084,26.916,60,60,60s60-26.916,60-60v-5.122
				h235c11.046,0,20-8.954,20-20C512,244.833,503.046,235.878,492,235.878z M217,281c0,11.028-8.972,20-20,20s-20-8.972-20-20v-52
				c0-11.028,8.972-20,20-20s20,8.972,20,20V281z"/>
			<path d="M492,407h-59.046v-6c0-33.084-26.916-60-60-60c-33.084,0-60,26.916-60,60v51c0,33.084,26.916,60,60,60
				c33.084,0,60-26.916,60-60v-5H492c11.046,0,20-8.954,20-20C512,415.954,503.046,407,492,407z M392.954,452
				c0,11.028-8.972,20-20,20c-11.028,0-20-8.972-20-20v-51c0-11.028,8.972-20,20-20c11.028,0,20,8.972,20,20V452z"/>
		</g>
	</g>
</g>
<g>
</g>
<g>
</g>
<g>
</g>
<g>
</g>
<g>
</g>
<g>
</g>
<g>
</g>
<g>
</g>
<g>
</g>
<g>
</g>
<g>
</g>
<g>
</g>
<g>
</g>
<g>
</g>
<g>
</g>
</svg>
