<?xml version="1.0" encoding="utf-8"?>
<!-- Generator: Adobe Illustrator 26.2.1, SVG Export Plug-In . SVG Version: 6.00 Build 0)  -->
<svg version="1.1" id="Calque_1" xmlns="http://www.w3.org/2000/svg" xmlns:xlink="http://www.w3.org/1999/xlink" x="0px" y="0px"
	 viewBox="0 0 1000 600" style="enable-background:new 0 0 1000 600;" xml:space="preserve">
<style type="text/css">
	.st0{fill:url(#SVGID_1_);}
	.st1{fill:#FFFFFF;}
	.st2{fill:none;}
	.st3{fill:#4A4C4B;}
</style>
<g>
	<linearGradient id="SVGID_1_" gradientUnits="userSpaceOnUse" x1="852.1109" y1="181.0747" x2="675.5717" y2="379.0849">
		<stop  offset="0" style="stop-color:#009CDE"/>
		<stop  offset="1" style="stop-color:#31B7BC"/>
	</linearGradient>
	<path class="st0" d="M741.01,83.39c-92.11,8.92-167.47,81.92-179.3,173.7c-6.5,50.44,6.08,97.65,31.22,135.93
		c4.4,6.7,3.4,15.58-2.27,21.25l-72.7,72.7c-9.87,9.87-9.87,25.87,0,35.74l0,0c9.87,9.87,25.87,9.87,35.74,0l71.93-71.93
		c5.78-5.78,14.86-6.69,21.58-2.05c38.4,26.52,86.37,40.12,137.68,34.11c92.59-10.84,166.76-86.36,175.94-179.13
		C973.38,177.11,867.57,71.14,741.01,83.39z"/>
</g>
<g>
	<g>
		<path class="st1" d="M746.19,199.42c-4.07-9.23-11.46-14.32-20.81-14.32H723c-9.36,0-16.76,5.09-20.85,14.42l-60.92,143.83
			c-1.18,2.82-1.77,5.85-1.77,9c0,4.11,1.64,7.97,4.88,11.48c3.4,3.69,8.33,5.55,14.66,5.55c7.23,0,12.93-4.02,16.09-11.36
			l13.58-32.59h71.05l13.61,32.67c3.13,7.27,8.83,11.28,16.05,11.28c6.33,0,11.26-1.87,14.64-5.53c3.25-3.51,4.91-7.38,4.91-11.5
			c0-3.13-0.6-6.16-1.78-9L746.19,199.42z M703.34,290.42l20.85-50.2l20.86,50.2H703.34z"/>
		<path class="st1" d="M853.39,190.55c-7.18-7.18-19.31-7.13-26.26,0.11c-3.41,3.56-5.23,8.07-5.23,13.03v147.35
			c0,5.03,1.84,9.53,5.33,13.02c3.49,3.49,7.99,5.33,13.02,5.33c4.96,0,9.47-1.81,13.03-5.23c3.64-3.49,5.55-8.04,5.55-13.12V203.68
			C858.83,198.66,856.95,194.11,853.39,190.55z"/>
	</g>
</g>
<g>
	<path class="st2" d="M389.27,262.55c-5.4,0-9.95,1.52-13.96,4.63c-3.79,2.94-5.63,6.61-5.63,11.21v62.78
		c5.53,2.59,11.93,3.9,19.09,3.9c17.21,0,25.57-14.16,25.57-43.26C414.34,275.4,406.13,262.55,389.27,262.55z"/>
	<path class="st2" d="M272.76,284.96c4.4-3.21,6.55-6.81,6.55-11.04c0-8.55-3.74-12.36-12.11-12.36s-14.62,3.22-19.09,9.83
		c-4.16,6.19-6.69,13.59-7.51,22.02c5.91-0.24,11.45-0.82,16.5-1.73C262.71,290.68,267.97,288.43,272.76,284.96z"/>
	<path class="st2" d="M108.99,227.91H89.65v111.94h22.58c13.48,0,23.67-4.7,31.15-14.35c7.53-9.73,11.36-24.24,11.36-43.11
		C154.74,245.73,139.78,227.91,108.99,227.91z"/>
	<path class="st3" d="M110.49,198.09H39.4v26.7l14.2,0.75v113.16c0,1.78-0.36,3.72-4.64,4.16l-10.8,0.97v25.6h73.59
		c21.91,0,40.49-6.96,55.24-20.69c7.44-6.91,13.39-16.56,17.68-28.65c4.25-11.97,6.39-26.15,6.39-42.18
		c0-26.1-7.21-46.16-21.43-59.61C155.43,204.89,135.54,198.09,110.49,198.09z M143.38,325.5c-7.49,9.65-17.67,14.35-31.15,14.35
		H89.65V227.91h19.34c30.79,0,45.75,17.82,45.75,54.48C154.74,301.26,150.92,315.77,143.38,325.5z"/>
	<path class="st3" d="M298.94,333.39c-9.75,6.92-19.6,10.44-29.25,10.44c-9.42,0-16.44-2.42-20.85-7.19
		c-3.94-4.27-6.35-9.83-7.2-16.58c12.96-0.23,24.83-1.94,35.34-5.08c6.88-2.07,12.84-4.79,17.71-8.08
		c4.99-3.38,9.22-8.1,12.59-14.03c3.38-5.97,5.1-12.94,5.1-20.7c0-11.8-4.04-21.12-11.99-27.71c-7.8-6.47-18.38-9.74-31.45-9.74
		c-20.24,0-36.23,7.06-47.54,20.98c-11.16,13.75-16.82,30.94-16.82,51.11c0,20.19,5,36.35,14.86,48.03
		c9.99,11.83,25.72,17.83,46.76,17.83c10.44,0,19.88-1.66,28.09-4.93c8.27-3.31,14.04-6.49,17.65-9.74l1.56-1.4l-11.79-25.15
		L298.94,333.39z M248.11,271.39c4.47-6.61,10.72-9.83,19.09-9.83s12.11,3.82,12.11,12.36c0,4.22-2.15,7.83-6.55,11.04
		c-4.79,3.47-10.05,5.73-15.66,6.72c-5.05,0.91-10.59,1.48-16.5,1.73C241.42,284.98,243.95,277.58,248.11,271.39z"/>
	<path class="st3" d="M397,234.71c-10.83,0-19.98,2.5-27.32,7.43v-56.01h-49.51v26.19l11.43,0.65c2.96,0.12,3.51,1.15,3.51,3.14
		v144.66l1.44,0.81c5.54,3.12,13.3,5.77,23.1,7.91c9.71,2.11,19.09,3.17,27.87,3.17c41.89,0,63.12-25.17,63.12-74.82
		c0-19.72-4.84-35.3-14.4-46.34C426.59,240.37,413.39,234.71,397,234.71z M388.77,345.08c-7.16,0-13.56-1.32-19.09-3.9V278.4
		c0-4.6,1.84-8.27,5.63-11.21c4-3.12,8.56-4.63,13.96-4.63c16.86,0,25.07,12.85,25.07,39.27
		C414.34,330.93,405.98,345.08,388.77,345.08z"/>
	<path class="st3" d="M513.43,343.22V238.45h-50.25v26.17l11.55,0.67c2.19,0,2.73,0.52,2.78,0.56c0,0.01,0.62,0.72,0.62,3.83v69.26
		c0,3.35-1.32,4.8-4.64,5.15l-10.79,0.97v24.35h64.95v-25.45L513.43,343.22z"/>
	<path class="st3" d="M492.91,227.67c6.37,0,11.68-1.98,15.78-5.89c4.12-3.94,6.23-9.04,6.23-15.13c0-6.07-2.08-11.22-6.18-15.33
		c-4.1-4.1-9.42-6.18-15.83-6.18c-6.43,0-11.71,2.09-15.73,6.2c-4,4.09-6.04,9.25-6.04,15.31c0,6.09,2.05,11.17,6.08,15.11
		C481.25,225.68,486.52,227.67,492.91,227.67z"/>
</g>
</svg>
